Coordinates
version=1
nRows=7
nColumns=46
inDegrees=yes

Units are S.I. units (second, meters, Newtons, ...)
Angles are in degrees.

endheader
time	pelvis_tilt	pelvis_list	pelvis_rotation	pelvis_tx	pelvis_ty	pelvis_tz	bb_angle	bb_tx	bb_ty	bb_tz	hip_flexion_r	hip_adduction_r	hip_rotation_r	knee_angle_r	knee_angle_r_beta	ankle_angle_r	subtalar_angle_r	mtp_angle_r	crank_angle_r	hip_flexion_l	hip_adduction_l	hip_rotation_l	knee_angle_l	knee_angle_l_beta	ankle_angle_l	subtalar_angle_l	mtp_angle_l	crank_angle_l	lumbar_extension	lumbar_bending	lumbar_rotation	arm_flex_r	arm_add_r	arm_rot_r	elbow_flex_r	pro_sup_r	wrist_flex_r	wrist_dev_r	arm_flex_l	arm_add_l	arm_rot_l	elbow_flex_l	pro_sup_l	wrist_flex_l	wrist_dev_l
      7.50500000	    -20.98958658	     -4.39238776	      4.45109690	      0.36283612	      1.13336627	     -0.27190857	      0.00000000	      0.50000000	      0.00000000	      0.25000000	     53.37193907	     -3.97542104	     -2.29909781	     87.53725560	      1.52781333	    -31.81987892	    -17.99773682	      0.00000000	      0.00000000	     55.79344576	      0.66476437	     10.94610863	     58.91838051	      1.02831973	     -3.69471401	    -16.19667012	      0.00000000	      0.00000000	    -64.93173518	      2.32372582	     -4.66435333	     52.82652494	    -18.57278716	     19.34690132	     73.31235174	     51.31677801	      0.00000000	      0.00000000	     49.44623625	    -24.61328916	     23.36101731	     88.75458457	     51.09392648	      0.00000000	      0.00000000
      7.51000000	    -20.90169071	     -5.06056886	      4.33524251	      0.36278839	      1.13224766	     -0.27165850	      0.00000000	      0.50000000	      0.00000000	      0.25000000	     54.68199708	     -3.54653405	     -2.60506064	     89.77262715	      1.56682792	    -30.95483717	    -18.00303375	      0.00000000	      0.00000000	     54.39998182	     -0.20109659	     11.23700765	     56.83171978	      0.99190063	     -4.76203370	    -15.69777643	      0.00000000	      0.00000000	    -64.81190873	      2.82456318	     -4.07547368	     53.05625369	    -18.58225100	     19.67312115	     73.31444969	     51.34754091	      0.00000000	      0.00000000	     48.97420884	    -24.60682011	     23.13813609	     88.79883395	     51.07890068	      0.00000000	      0.00000000
      7.51500000	    -20.84523360	     -5.50949943	      4.22454303	      0.36270187	      1.13110712	     -0.27175564	      0.00000000	      0.50000000	      0.00000000	      0.25000000	     56.08669378	     -3.42269236	     -2.72443453	     92.12205004	      1.60783309	    -29.30912411	    -16.99478078	      0.00000000	      0.00000000	     52.94238887	     -0.83124819	     11.38896572	     54.67100165	      0.95418898	     -6.08049985	    -16.08132576	      0.00000000	      0.00000000	    -64.70725602	      3.28769427	     -3.75213672	     53.45115674	    -18.82099470	     20.88548738	     73.23522850	     51.47055224	      0.00000000	      0.00000000	     48.18775400	    -24.43023877	     22.16163365	     89.05762148	     51.02494661	      0.00000000	      0.00000000
      7.52000000	    -20.80374159	     -6.18103341	      4.05688670	      0.36270155	      1.13005777	     -0.27152811	      0.00000000	      0.50000000	      0.00000000	      0.25000000	     57.45650775	     -3.08086097	     -3.11231135	     94.29255174	      1.64571549	    -28.08722987	    -16.99129179	      0.00000000	      0.00000000	     51.56875598	     -1.79325335	     11.54131200	     52.60189828	      0.91807632	     -7.05374247	    -15.56001687	      0.00000000	      0.00000000	    -64.56291908	      3.80508683	     -3.13986673	     53.67056792	    -18.78323647	     21.25519346	     73.20479343	     51.49926096	      0.00000000	      0.00000000	     47.66117799	    -24.42804621	     21.93586903	     89.09579099	     51.00868762	      0.00000000	      0.00000000
      7.52500000	    -20.79264154	     -6.82956194	      3.81683705	      0.36275048	      1.12905766	     -0.27123486	      0.00000000	      0.50000000	      0.00000000	      0.25000000	     58.86309570	     -2.73771861	     -3.48304168	     96.39721339	      1.68244876	    -26.79564611	    -16.94400224	      0.00000000	      0.00000000	     50.14866596	     -2.75076745	     11.75042763	     50.51894666	      0.88172195	     -7.88098531	    -15.26686913	      0.00000000	      0.00000000	    -64.41099809	      4.22990264	     -2.48050880	     53.83809198	    -18.72712688	     21.56589429	     73.20715730	     51.52454991	      0.00000000	      0.00000000	     47.20579336	    -24.43172473	     21.75093357	     89.10402722	     50.99095166	      0.00000000	      0.00000000
      7.53000000	    -20.75507455	     -7.15372317	      3.64994864	      0.36270331	      1.12814274	     -0.27148004	      0.00000000	      0.50000000	      0.00000000	      0.25000000	     60.25581191	     -2.81947931	     -3.56913568	     98.57392258	      1.72043951	    -24.48268943	    -15.61155506	      0.00000000	      0.00000000	     48.64271505	     -3.43794593	     11.45314252	     48.35043488	      0.84387428	     -9.37070894	    -15.57324265	      0.00000000	      0.00000000	    -64.31178512	      4.75062101	     -2.62464256	     54.91563180	    -18.89016310	     24.11770149	     72.54021901	     51.73283203	      0.00000000	      0.00000000	     45.77248324	    -24.35334939	     19.71455028	     89.85822933	     50.93467194	      0.00000000	      0.00000000
      7.53500000	    -20.76415018	     -7.56017619	      3.36833754	      0.36279571	      1.12733291	     -0.27124688	      0.00000000	      0.50000000	      0.00000000	      0.25000000	     61.67242123	     -2.73466102	     -3.80008954	    100.56626391	      1.75521242	    -22.75596462	    -15.15267558	      0.00000000	      0.00000000	     47.16973241	     -4.28396783	     11.22010594	     46.26218539	      0.80742745	    -10.41399573	    -15.34955042	      0.00000000	      0.00000000	    -64.16361774	      5.06960082	     -2.18918058	     55.03388528	    -18.67149326	     24.34015149	     72.47916498	     51.75368138	      0.00000000	      0.00000000	     45.28065354	    -24.39206521	     19.49127779	     89.84730197	     50.91494074	      0.00000000	      0.00000000
